<?xml version="1.0" encoding="UTF-8"?> <svg xmlns="http://www.w3.org/2000/svg" width="1141" height="410" viewBox="0 0 1141 410" fill="none"> <path d="M623.397 13.4269C626.005 9.86037 625.228 4.85501 621.661 2.24709C618.095 -0.360828 613.09 0.416258 610.482 3.98276L623.397 13.4269ZM658.668 223.316C662.947 222.216 665.524 217.855 664.424 213.576C663.324 209.297 658.963 206.72 654.684 207.82L658.668 223.316ZM620.933 4.68383C618.323 1.11884 613.317 0.34466 609.752 2.95465C606.187 5.56464 605.413 10.5704 608.023 14.1354L620.933 4.68383ZM582.709 209.229C578.43 208.13 574.07 210.709 572.971 214.988C571.872 219.267 574.45 223.627 578.73 224.726L582.709 209.229ZM607.533 8.70482C607.533 13.1231 611.114 16.7048 615.533 16.7048C619.951 16.7048 623.533 13.1231 623.533 8.70482H607.533ZM623.533 8C623.533 3.58172 619.951 0 615.533 0C611.114 0 607.533 3.58172 607.533 8H623.533ZM610.482 3.98276C585.838 37.6841 567.379 70.0084 555.737 99.1105C544.148 128.08 539.059 154.497 541.978 176.112C544.962 198.205 556.4 215.316 577.014 223.93C596.975 232.27 624.358 232.137 658.668 223.316L654.684 207.82C621.828 216.267 598.486 215.561 583.183 209.167C568.534 203.045 560.169 191.259 557.834 173.97C555.435 156.204 559.511 132.755 570.592 105.053C581.621 77.4836 599.337 46.3306 623.397 13.4269L610.482 3.98276ZM608.023 14.1354C631.41 46.0799 648.946 76.7537 660.128 104.166C671.361 131.702 675.943 155.362 674.147 173.504C672.389 191.263 664.659 203.295 651.046 209.641C636.799 216.281 614.609 217.42 582.709 209.229L578.73 224.726C612.146 233.307 638.674 233.06 657.805 224.143C677.57 214.93 687.876 197.234 690.069 175.081C692.224 153.311 686.672 126.876 674.943 98.1222C663.163 69.2438 644.909 37.4321 620.933 4.68383L608.023 14.1354ZM623.533 8.70482V8H607.533V8.70482H623.533Z" fill="#96D8FF"></path> <path d="M531.558 13.3953C534.148 9.81612 533.347 4.81461 529.767 2.22413C526.188 -0.366359 521.187 0.435141 518.596 4.01433L531.558 13.3953ZM566.419 223.311C570.695 222.2 573.262 217.833 572.151 213.557C571.04 209.28 566.673 206.714 562.397 207.825L566.419 223.311ZM529.119 4.71539C526.526 1.1377 521.524 0.339102 517.947 2.93166C514.369 5.52422 513.57 10.5262 516.163 14.1039L529.119 4.71539ZM491.236 209.234C486.959 208.125 482.592 210.692 481.483 214.969C480.373 219.245 482.941 223.612 487.218 224.721L491.236 209.234ZM515.685 8.70482C515.685 13.1231 519.266 16.7048 523.685 16.7048C528.103 16.7048 531.685 13.1231 531.685 8.70482H515.685ZM531.685 8C531.685 3.58172 528.103 0 523.685 0C519.266 0 515.685 3.58172 515.685 8H531.685ZM518.596 4.01433C494.204 37.7162 475.934 70.0389 464.413 99.1367C452.944 128.103 447.912 154.506 450.799 176.101C453.747 198.158 465.052 215.286 485.501 223.918C505.301 232.277 532.445 232.136 566.419 223.311L562.397 207.825C529.891 216.268 506.828 215.554 491.724 209.178C477.268 203.075 468.973 191.306 466.657 173.981C464.28 156.195 468.319 132.732 479.289 105.027C490.207 77.4532 507.744 46.2984 531.558 13.3953L518.596 4.01433ZM516.163 14.1039C539.311 46.0478 556.669 76.7232 567.739 104.139C578.858 131.678 583.398 155.352 581.619 173.512C579.875 191.307 572.207 203.327 558.772 209.654C544.715 216.274 522.794 217.421 491.236 209.234L487.218 224.721C520.309 233.306 546.61 233.067 565.589 224.129C585.191 214.898 595.375 197.19 597.542 175.073C599.674 153.321 594.184 126.9 582.575 98.1487C570.917 69.2743 552.85 37.4642 529.119 4.71539L516.163 14.1039ZM531.685 8.70482V8H515.685V8.70482H531.685Z" fill="#10A5DE"></path> <path d="M534 133.5L565 78L572 70.5L603.5 126L614 152.5L606.5 186.5L584 216.5L568.5 227.5L537 192.5L527 157L534 133.5Z" fill="white"></path> <path d="M563.3 57.2002C542.7 92.3002 530.5 118.3 526 137.3C518.3 169.3 533.1 207.4 561.4 228.1C569.1 233.8 569.3 233.9 572.1 232.4C580.6 228.1 593.5 215.5 600.7 204.7C610.6 189.7 614.9 176.3 615.7 158C616.1 147.2 615.9 144.3 614 137C608.8 116.9 597.6 92.9002 577.2 58.2002C573.5 52.1002 570.3 47.0002 569.9 47.0002C569.6 47.0002 566.6 51.6002 563.3 57.2002ZM571.4 88.2002C571.7 92.2002 572.3 113.7 572.6 136C573.3 176.1 571.9 220.5 570.1 222.3C568.5 223.9 567.5 197.4 567.5 151C567.5 106 568.4 81.0002 570 81.0002C570.4 81.0002 571 84.3002 571.4 88.2002ZM546.5 138.4C553.8 144.5 563.8 156.5 562.6 157.7C560.8 159.5 545.4 146.3 539.9 138.3C534.5 130.5 537.1 130.6 546.5 138.4ZM600.2 138.2C594.6 146.3 579.2 159.5 577.4 157.7C576.6 157 582.6 148.9 588 143.4C594 137.3 602.3 131.4 602.8 132.9C603 133.5 601.8 135.9 600.2 138.2ZM608.9 158.7C602.8 167.8 579.2 189.5 577.4 187.7C576.6 186.9 585.9 175.1 592.5 168.5C599.1 161.9 610.9 152.6 611.7 153.4C612 153.7 610.7 156 608.9 158.7ZM538.5 160.4C542.9 163.9 548 168.4 549.9 170.5C555 176.2 563.2 187.2 562.6 187.7C560.8 189.5 537.4 168.1 531.1 158.7C526.7 152.2 528.9 152.7 538.5 160.4ZM550.9 193.4C556.7 199 563.4 207.9 562.6 208.7C560 211.3 537 188.8 537 183.7C537 182 544.9 187.5 550.9 193.4ZM600.2 189.2C595 196.6 581 209 577.8 209C576 209 580.3 202.7 586.8 195.8C593.7 188.5 602.2 182.2 602.8 183.9C603 184.5 601.8 186.9 600.2 189.2Z" fill="#4F7134"></path> <path d="M903.9 294.2C903.7 317.7 903.7 318.4 902.7 318.8C902.3 319 899.4 318.2 896.2 317C887.6 313.7 875.6 314.5 866.8 318.8C848 328 839.4 350.8 844.5 377.6C846.3 387.3 849.8 394.5 855.1 400C862.3 407.4 874.3 410.9 885.5 408.9C892.6 407.6 895.8 406 900.9 401.4L904.8 398L905.9 402.5L907 407H922.9H938.7L937.7 402.7C937.1 400.2 936.5 373.3 936.3 336.7L935.9 275H919.9H904L903.9 294.2ZM900.4 341.8L903.5 343.6L903.7 360.5L903.9 377.3L900.6 380.6C896.6 384.6 891.4 385.8 886.3 383.8C883.5 382.8 882 381.3 880.1 377.6C877.9 373.3 877.6 371.4 877.6 362.6C877.6 353.8 877.9 351.7 880 347.5C884 339.4 892.3 337.1 900.4 341.8Z" fill="#4F7134"></path> <path d="M55 284.1C28.1 288.8 7.7 306.7 1.6 331.1C0.7 334.7 0 341.6 0 346.5C0 375.5 16.5 397.7 44.5 406.6C49.5 408.2 53.5 408.5 68.5 408.5C88.6 408.4 95.5 407.2 107.3 401.8L114 398.7L114.2 369.6C114.2 353.6 114.3 339.6 114.4 338.5C114.5 336.6 113.8 336.5 88.2 336.2L62 336V349V362H72H82V370.5C82 378.9 81.9 379.1 79.3 380.2C77.7 380.8 72.2 381.4 67 381.4C58.3 381.5 57.1 381.2 52.1 378.5C41.3 372.5 36.5 362.4 36.6 345.5C36.6 329.5 41.3 320.4 52.4 315C63.3 309.6 79.1 310 91.3 315.9L97.1 318.7L104.1 306.3C107.9 299.5 110.8 293.5 110.5 292.9C109.4 291.2 100.7 287.3 94 285.5C86.3 283.5 63.3 282.6 55 284.1Z" fill="#4F7134"></path> <path d="M596 284.5C582.2 287.3 571.4 292.7 562.1 301.5C549.5 313.4 544.1 325.5 543.3 343.5C542.4 363 547.8 377.8 560.5 390.6C573.3 403.5 588.6 409 611.8 409C627 409 639.9 406.6 650 401.9L657 398.7V367.4V336H631H605V349V362H615H625V370.5C625 378.9 625 379.1 622.3 380.1C613.1 383.6 599.1 381.8 591.3 376.1C577.6 366.2 575 336.5 586.4 321.5C587.9 319.5 591.8 316.7 595.7 314.8C602 311.7 603.1 311.5 612.5 311.5C623 311.6 630.4 313.2 636.6 316.9L639.9 318.9L645.6 308.7C648.7 303.1 651.9 297.4 652.8 296.1C654.2 293.8 654.1 293.5 652.1 291.9C643.2 284.7 614 280.8 596 284.5Z" fill="#4F7134"></path> <path d="M179.4 317.1C177.1 318.2 173.4 321 171.1 323.3L167 327.4V322.2V317H151H135V362V407H151H167V379.6V352.3L169.6 349.6C175.9 343.4 182.7 341.2 190.5 343C193.1 343.6 195.5 343.8 195.8 343.6C196.4 343 202.9 320 203 318.3C203 314.7 186 313.8 179.4 317.1Z" fill="#4F7134"></path> <path d="M236.9 316.9C210.9 325.2 198.8 349.6 206.6 378C210.7 392.9 221.9 403.2 238.5 407.5C246.2 409.5 265.4 409.5 273.8 407.5C281.2 405.7 290 402.1 290 400.9C290 400.4 288 395.9 285.4 390.9C281.8 383.6 280.6 382 279.2 382.5C266.3 387.9 250.5 387.6 244.3 381.9C242.1 379.9 239 374.4 239 372.5C239 372.2 251.4 372 266.6 372H294.3L293.7 359.2C292.9 340.1 288.8 330.4 278.2 322.3C269 315.3 249.7 312.8 236.9 316.9ZM258.9 339.4C261.7 342.4 263.6 350 261.9 351.1C260.3 352.1 240.8 352.2 239.3 351.2C237.3 349.9 239.7 343.1 243.2 339.8C245.7 337.5 247.1 337 251.4 337C255.7 337 257.1 337.5 258.9 339.4Z" fill="#4F7134"></path> <path d="M336.5 316.8C315.3 323.1 303.6 339.2 303.7 362C303.8 372.1 305.1 378.3 308.8 385.8C313.9 396.3 324.2 404 337.6 407.5C345.2 409.5 364.4 409.5 372.8 407.5C380.2 405.7 389 402.1 389 400.9C389 400.4 387 395.9 384.4 390.9C380.8 383.6 379.6 382 378.2 382.5C369.4 386.2 355.6 387.4 348.9 385.2C346.9 384.5 344.2 382.7 342.9 381.2C340.1 378.1 337.8 373.5 338.7 372.6C339.1 372.3 351.4 372 366.2 372H393V361.7C393 339.2 386 325.6 371 318.7C365.3 316.1 363.2 315.7 353.5 315.4C345 315.1 341.1 315.4 336.5 316.8ZM357.9 339.8C361 342.9 362.9 349.8 360.9 351C359.2 352.1 338.3 352.2 337.6 351.2C336.7 349.6 339.3 342.8 342.1 339.9C344.4 337.4 345.6 337 350 337C354.3 337 355.6 337.5 357.9 339.8Z" fill="#4F7134"></path> <path d="M456.5 316.4C451.1 318.1 448.3 319.7 443.3 323.7L439 327.1V322.1V317H423H407V362V407H423.5H440V377.7C440 348.5 440 348.3 442.3 346.3C448.2 340.8 455.8 339.7 460.1 343.6C461.9 345.2 462 347.3 462 376.2V407H478.5H495.1L494.7 370.7C494.5 344.7 494 333.4 493.1 330.6C491.4 325.4 483.6 317.8 478.4 316.2C473.2 314.7 461.7 314.8 456.5 316.4Z" fill="#4F7134"></path> <path d="M698.4 316.6C691.4 318.3 678.1 324.7 676.7 327.1C676 328.3 677.2 330.8 681.8 337.7L687.9 346.7L693.7 343.9C704.3 338.6 716.8 337.8 721.1 342.1C722.2 343.2 723 345.4 723 347.3V350.7L713.1 351.3C701.6 352 691.2 355.2 684.2 360.3C667.9 372 668.6 397.3 685.5 405.9C689.8 408.2 691.7 408.5 700.5 408.5C709.5 408.5 710.9 408.2 715 405.9C717.5 404.4 720.4 402.3 721.4 401.1C724.1 398.2 724.7 398.4 725.4 403L726 407H742.1H758.2L757.6 403.7C757.3 402 756.4 386.1 755.7 368.5C754.5 340.1 754.1 336 752.3 331.9C749.4 325.5 744.1 320.6 737.3 318C729.7 315 707.9 314.3 698.4 316.6ZM723 376.3C723 383.3 722.9 383.6 720.1 385.3C716.9 387.2 708.9 387.6 706 386C702.9 384.3 702 381.7 703.1 377.8C703.6 375.8 704.7 373.7 705.5 373C708 371 714.2 369.1 718.8 369H723V376.3Z" fill="#4F7134"></path> <path d="M817.4 317.4C814.6 318.7 811 321.4 809.4 323.4C807.8 325.4 806.2 327 805.8 327C805.3 327 805 324.7 805 322V317H789H773V362V407H789H805V380.1V353.2L807.6 350C812.9 343.8 821.5 341.3 831 343.4L834.6 344.1L837.9 331.8C839.8 325 841.5 319 841.7 318.3C842.3 316.7 835.7 315 828.5 315C824.3 315 821 315.7 817.4 317.4Z" fill="#4F7134"></path> <path d="M983.6 316.1C971.7 319 959.4 328.2 954.6 337.8C949.3 348.2 947.6 361.6 950 374C953.2 391 965.6 403.3 983.6 407.6C988.9 408.8 993.7 409.1 1004 408.7C1017.5 408.2 1023.4 406.9 1031.8 402.6L1035 401L1030.3 391.5C1026.7 384.3 1025.2 382.1 1024 382.6C1014.7 386.6 998.9 387.6 992.5 384.5C988.3 382.4 984 377 984 373.9C984 372.1 985.4 372 1010.9 372H1037.7L1038.3 367C1039.1 360.3 1037.5 347.1 1035 339.6C1031.8 330 1026.8 324.2 1017.7 319.6C1010.3 315.8 1009.6 315.6 998.7 315.4C992.6 315.2 985.8 315.5 983.6 316.1ZM1003.5 339.6C1006 342.3 1007.6 347.9 1006.7 350.3C1005.9 352.4 984.2 352.7 983.4 350.6C982.4 348.1 984.9 342.2 988.1 339.5C992.5 335.9 1000.1 335.9 1003.5 339.6Z" fill="#4F7134"></path> <path d="M1100.3 316.9C1095.2 318.6 1088.3 323.1 1086.7 325.7C1085.1 328.3 1084 326.9 1084 322V317H1068.5H1053V362V407H1069H1085V377.7C1085 348.5 1085 348.3 1087.3 346.2C1089.9 343.8 1096 341 1098.9 341C1102.5 341 1105.9 343.2 1107 346.3C1107.6 348.1 1108 360.6 1108 378.1V407H1124H1140.1L1139.8 369.7L1139.5 332.5L1136.6 327.3C1133.5 321.7 1128.5 317.6 1122.9 316C1117.5 314.4 1106.1 314.9 1100.3 316.9Z" fill="#4F7134"></path> </svg> 